<?xml version="1.0" encoding="UTF-8"?>
<svg width="128" height="128" viewBox="0 0 128 128" xmlns="http://www.w3.org/2000/svg">
  <defs>
    <linearGradient id="grad1" x1="0%" y1="0%" x2="100%" y2="100%">
      <stop offset="0%" style="stop-color:#7c3aed;stop-opacity:1" />
      <stop offset="100%" style="stop-color:#a855f7;stop-opacity:1" />
    </linearGradient>
    <linearGradient id="grad2" x1="0%" y1="0%" x2="100%" y2="100%">
      <stop offset="0%" style="stop-color:#06b6d4;stop-opacity:1" />
      <stop offset="100%" style="stop-color:#0891b2;stop-opacity:1" />
    </linearGradient>
  </defs>
  
  <!-- Background circle -->
  <circle cx="64" cy="64" r="60" fill="url(#grad1)" stroke="#fff" stroke-width="2"/>
  
  <!-- Main BOM structure icon -->
  <!-- Central product -->
  <rect x="50" y="50" width="28" height="28" rx="4" fill="#fff" stroke="#7c3aed" stroke-width="2"/>
  <text x="64" y="69" text-anchor="middle" fill="#7c3aed" font-family="Arial, sans-serif" font-size="10" font-weight="bold">P</text>
  
  <!-- Components around -->
  <!-- Top left component -->
  <rect x="20" y="20" width="20" height="20" rx="3" fill="url(#grad2)"/>
  <text x="30" y="33" text-anchor="middle" fill="#fff" font-family="Arial, sans-serif" font-size="8" font-weight="bold">C1</text>
  
  <!-- Top right component -->
  <rect x="88" y="20" width="20" height="20" rx="3" fill="url(#grad2)"/>
  <text x="98" y="33" text-anchor="middle" fill="#fff" font-family="Arial, sans-serif" font-size="8" font-weight="bold">C2</text>
  
  <!-- Bottom left component -->
  <rect x="20" y="88" width="20" height="20" rx="3" fill="url(#grad2)"/>
  <text x="30" y="101" text-anchor="middle" fill="#fff" font-family="Arial, sans-serif" font-size="8" font-weight="bold">C3</text>
  
  <!-- Bottom right component -->
  <rect x="88" y="88" width="20" height="20" rx="3" fill="url(#grad2)"/>
  <text x="98" y="101" text-anchor="middle" fill="#fff" font-family="Arial, sans-serif" font-size="8" font-weight="bold">C4</text>
  
  <!-- Connection lines -->
  <line x1="40" y1="30" x2="50" y2="50" stroke="#fff" stroke-width="2" opacity="0.8"/>
  <line x1="88" y1="30" x2="78" y2="50" stroke="#fff" stroke-width="2" opacity="0.8"/>
  <line x1="40" y1="98" x2="50" y2="78" stroke="#fff" stroke-width="2" opacity="0.8"/>
  <line x1="88" y1="98" x2="78" y2="78" stroke="#fff" stroke-width="2" opacity="0.8"/>
  
  <!-- Flexibility indicator (curved arrow) -->
  <path d="M 70 40 Q 85 30 95 45" stroke="#fbbf24" stroke-width="3" fill="none" stroke-linecap="round"/>
  <polygon points="92,42 98,45 92,48" fill="#fbbf24"/>
  
  <!-- Small gear icon for configuration -->
  <g transform="translate(75,75) scale(0.7)">
    <circle cx="8" cy="8" r="6" fill="none" stroke="#fbbf24" stroke-width="1.5"/>
    <circle cx="8" cy="8" r="2" fill="#fbbf24"/>
    <line x1="8" y1="1" x2="8" y2="3" stroke="#fbbf24" stroke-width="1"/>
    <line x1="8" y1="13" x2="8" y2="15" stroke="#fbbf24" stroke-width="1"/>
    <line x1="1" y1="8" x2="3" y2="8" stroke="#fbbf24" stroke-width="1"/>
    <line x1="13" y1="8" x2="15" y2="8" stroke="#fbbf24" stroke-width="1"/>
    <line x1="3.05" y1="3.05" x2="4.46" y2="4.46" stroke="#fbbf24" stroke-width="1"/>
    <line x1="11.54" y1="11.54" x2="12.95" y2="12.95" stroke="#fbbf24" stroke-width="1"/>
    <line x1="12.95" y1="3.05" x2="11.54" y2="4.46" stroke="#fbbf24" stroke-width="1"/>
    <line x1="4.46" y1="11.54" x2="3.05" y2="12.95" stroke="#fbbf24" stroke-width="1"/>
  </g>
</svg>
